<?xml version="1.0" encoding="UTF-8" standalone="no"?>
<svg width="610"
     height="120"
     viewBox="-5 -5 620 125"
     version="1.1"
     id="ratarmount-logo"
     xmlns:xlink="http://www.w3.org/1999/xlink"
     xmlns="http://www.w3.org/2000/svg"
     xmlns:svg="http://www.w3.org/2000/svg"
>
    <defs id="definitions">
        <linearGradient
           xlink:href="#linearGradientStops"
           id="linearGradient1"
           gradientUnits="userSpaceOnUse"
           x1="190" y1="0" x2="320" y2="0"/>
        <linearGradient id="linearGradientStops">
            <stop offset="0" id="stop-ratar" style="stop-color: #BB00CC"/>
            <stop offset="1" id="stop-mount" style="stop-color: #00AA00"/>
        </linearGradient>
        <filter id="glow">
            <feGaussianBlur stdDeviation="1" result="blur1"/>
            <feGaussianBlur stdDeviation="2" result="blur2"/>
            <feGaussianBlur stdDeviation="4" result="blur3"/>
            <feColorMatrix in="SourceGraphic" type="saturate" values="2" result="luminescence"/>
            <feMerge>
                <feMergeNode in="blur1"/>
                <feMergeNode in="blur2"/>
                <feMergeNode in="blur3"/>
                <feMergeNode in="SourceGraphic"/>
                <feMergeNode in="luminescence"/>
            </feMerge>
        </filter>
    </defs>
    <g id="ratarmount" class="gloweffect" style="
        fill: none;
        stroke-width: 10;
        stroke-linecap: round;
        stroke-miterlimit: 4;
        stroke-dasharray: none;
        stroke-opacity:1;">
        <g id="ratar" style="stroke: #BB00CC">
            <g id="r" transform="translate(30, 0)">
                <path d="m 0,50 c -11,0 -20,9 -20,20 v 30"/>
            </g>
            <g id="a" transform="translate(50, 0)">
                <circle id="a-ring" cx="25" cy="75" r="25"/>
                <path d="m 50,75 v 25" id="a-tail"/>
            </g>
            <g id="left-t" transform="translate(125, 0)">
                <path d="M 0,10 v 90"/>
            </g>
            <g id="mirrored-a" transform="translate(150, 0)">
                <circle id="mirrored-a-ring" cx="25" cy="75" r="25"/>
                <path d="m 0,75 0,25" id="mirrored-a-tail"/>
            </g>
            <g id="mirrored-r" transform="translate(220, 0)">
                <path d="m 0,50 c 11,0 20,9 20,20 v 30"/>
            </g>
        </g>
        <g id="mount" style="stroke:#00AA00" transform="translate(255, 0)">
            <g id="m">
                <path d="m 50,100 v -30 c 0,-11 -9,-20 -20,-20 -11,0 -20,9 -20,20 v 30 m 80,0 v -30 c 0,-11 -9,-20 -20,-20 -11,0 -20,9 -20,20"/>
            </g>
            <g id="o" transform="translate(110, 0)">
                <circle cx="25" cy="75" r="25"/>
            </g>
            <g id="u" transform="translate(205, 0)">
                <path d="m 25,50 v 25 c 0,13.8 -11,25 -25,25 -13.8,0 -25,-11 -25,-25 v -25"/>
            </g>
            <g id="n" transform="translate(250, 0)">
                <path d="m 0,100 v -25 c 0,-13.8 11,-25 25,-25 13.8,0 25,11 25,25 v 25"/>
            </g>
            <path id="right-t" d="m 325,10 v 90"/>
        </g>
        <g id="animated-t-bar">
            <path id="right-t-bar" d="M 240,30 H 595" style="stroke:url(#linearGradient1)"/>
        </g>
        <path style="stroke:url(#linearGradient1)" d="M 15,30 H 240" id="roof"/>
    </g>
</svg>
