<?xml version="1.0" encoding="UTF-8" standalone="no"?>
<svg width="310"
     height="260"
     version="1.1"
     id="ratarmount-logo"
     xmlns:xlink="http://www.w3.org/1999/xlink"
     xmlns="http://www.w3.org/2000/svg"
     xmlns:svg="http://www.w3.org/2000/svg"
>
    <g id="ratarmount-icon-face" class="gloweffect" transform="translate(5, 20)" style="
        fill: none;
        stroke-width: 10;
        stroke-linecap: round;
        stroke-miterlimit: 4;
        stroke-dasharray: none;
        stroke-opacity:1;">
        <rect id="background" x="0" y="0" width="300" height="220" ry="60" style="
            fill:#000000;
            fill-opacity:1;
            stroke:#aa00cc"/>
        <g id="face-features" transform="translate(25, 30)">
            <g id="ratar" style="stroke: #009900">
                <g id="r" transform="translate(30, 0)">
                    <path d="m 0,50 c -11,0 -20,9 -20,20 v 30"/>
                </g>
                <g id="a" transform="translate(50, 0)">
                    <circle id="a-ring" cx="25" cy="75" r="25"/>
                    <path d="m 50,75 v 25" id="a-tail"/>
                </g>
                <g id="left-t" transform="translate(125, 0)">
                    <path d="M 0,10 v 90"/>
                </g>
                <g id="mirrored-a" transform="translate(150, 0)">
                    <circle id="mirrored-a-ring" cx="25" cy="75" r="25"/>
                    <path d="m 0,75 -0,25" id="mirrored-a-tail"/>
                </g>
                <g id="mirrored-r" transform="translate(220, 0)">
                    <path d="m 0,50 c 11,0 20,9 20,20 v 30"/>
                </g>
            </g>
            <g id="u" style="stroke: #009900" transform="translate(125, 50)">
                <path d="m 25,50 v 25 c 0,13.8 -11,25 -25,25 -13.8,0 -25,-11 -25,-25 v -25"/>
            </g>
            <path style="stroke:#009900" d="M 10,30 H 240" id="roof"/>
        </g>
    </g>
</svg>
